<svg xmlns="http://www.w3.org/2000/svg" viewBox="0 0 396 180"><path d="M7.94 151.63H4v-22.75h3.94v22.75zm8.18-16.9l.11 1.95c1.25-1.51 2.89-2.27 4.92-2.27 3.52 0 5.31 2.02 5.38 6.05v11.17h-3.8v-10.95c0-1.07-.23-1.87-.7-2.38-.46-.52-1.22-.77-2.27-.77-1.53 0-2.67.69-3.42 2.08v12.03h-3.8v-16.91h3.58zm13.72 8.32c0-2.6.6-4.7 1.81-6.27 1.21-1.58 2.83-2.37 4.86-2.37 1.79 0 3.24.62 4.34 1.88v-8.66h3.8v24h-3.44l-.19-1.75c-1.14 1.38-2.65 2.06-4.55 2.06-1.98 0-3.58-.8-4.8-2.39-1.22-1.59-1.83-3.76-1.83-6.5zm3.8.33c0 1.72.33 3.06.99 4.02.66.96 1.6 1.45 2.82 1.45 1.55 0 2.69-.69 3.41-2.08v-7.22c-.7-1.35-1.82-2.03-3.38-2.03-1.23 0-2.18.49-2.84 1.46-.67.98-1 2.44-1 4.4zm25.38 6.6c-1.12 1.31-2.7 1.97-4.75 1.97-1.83 0-3.22-.54-4.16-1.61s-1.41-2.62-1.41-4.66v-10.95h3.8v10.91c0 2.15.89 3.22 2.67 3.22 1.84 0 3.09-.66 3.73-1.98v-12.14h3.8v16.91h-3.58l-.1-1.67zm17.17-2.94c0-.68-.28-1.19-.84-1.55-.56-.35-1.48-.67-2.77-.94-1.29-.27-2.37-.61-3.23-1.03-1.9-.92-2.84-2.24-2.84-3.98 0-1.46.61-2.68 1.84-3.66s2.79-1.47 4.69-1.47c2.02 0 3.65.5 4.9 1.5 1.24 1 1.87 2.3 1.87 3.89H76c0-.73-.27-1.34-.81-1.82s-1.26-.73-2.16-.73c-.83 0-1.51.19-2.04.58-.53.39-.79.9-.79 1.55 0 .58.24 1.04.73 1.36.49.32 1.48.65 2.97.98 1.49.33 2.66.72 3.51 1.17.85.45 1.48 1 1.89 1.63.41.64.62 1.41.62 2.31 0 1.52-.63 2.75-1.89 3.7-1.26.94-2.91 1.41-4.95 1.41-1.39 0-2.62-.25-3.7-.75s-1.93-1.19-2.53-2.06c-.6-.88-.91-1.82-.91-2.83h3.69c.05.9.39 1.59 1.02 2.07s1.45.73 2.48.73c1 0 1.76-.19 2.28-.57.52-.38.78-.88.78-1.49zm11.96-16.42v4.11h2.98v2.81h-2.98v9.44c0 .65.13 1.11.38 1.4.25.29.71.43 1.37.43.44 0 .88-.05 1.33-.16v2.94c-.87.24-1.7.36-2.5.36-2.92 0-4.38-1.61-4.38-4.83v-9.58h-2.78v-2.81h2.78v-4.11h3.8zm14.89 7.58a9.83 9.83 0 00-1.55-.12c-1.74 0-2.91.67-3.52 2v11.56h-3.8v-16.91h3.62l.09 1.89c.92-1.47 2.19-2.2 3.81-2.2.54 0 .99.07 1.34.22l.01 3.56zm8.76 8l3.44-11.47h4.05l-6.72 19.47c-1.03 2.84-2.78 4.27-5.25 4.27-.55 0-1.16-.09-1.83-.28v-2.95l.72.05c.96 0 1.68-.17 2.16-.52.48-.35.87-.93 1.15-1.76l.55-1.45-5.94-16.82h4.09l3.58 11.46zm22.49 5.43h-3.94v-22.75h3.94v22.75zm8.17-16.9l.11 1.95c1.25-1.51 2.89-2.27 4.92-2.27 3.52 0 5.31 2.02 5.38 6.05v11.17h-3.8v-10.95c0-1.07-.23-1.87-.7-2.38-.46-.52-1.22-.77-2.27-.77-1.53 0-2.67.69-3.42 2.08v12.03h-3.8v-16.91h3.58zm15.77 16.9v-14.09h-2.58v-2.81h2.58v-1.55c0-1.88.52-3.32 1.56-4.34s2.5-1.53 4.38-1.53c.67 0 1.38.09 2.12.28l-.09 2.97c-.42-.08-.9-.12-1.45-.12-1.81 0-2.72.93-2.72 2.8v1.5h3.44v2.81h-3.44v14.09h-3.8zm9.46-8.61c0-1.66.33-3.15.98-4.48s1.58-2.35 2.77-3.06 2.55-1.07 4.09-1.07c2.28 0 4.13.73 5.55 2.2s2.19 3.42 2.3 5.84l.02.89c0 1.67-.32 3.16-.96 4.47s-1.56 2.33-2.75 3.05c-1.19.72-2.57 1.08-4.13 1.08-2.39 0-4.29-.79-5.73-2.38-1.43-1.59-2.15-3.71-2.15-6.35v-.19zm3.8.33c0 1.74.36 3.1 1.08 4.09s1.72 1.48 3 1.48 2.28-.5 2.99-1.5c.71-1 1.07-2.46 1.07-4.39 0-1.71-.37-3.06-1.1-4.06s-1.73-1.5-2.99-1.5c-1.24 0-2.22.49-2.95 1.48-.74.97-1.1 2.44-1.1 4.4zm17.66 4.28c.71 0 1.25.2 1.64.6.38.4.58.9.58 1.51 0 .59-.19 1.09-.58 1.48-.39.39-.93.59-1.64.59-.68 0-1.21-.19-1.61-.58-.4-.38-.59-.88-.59-1.48s.19-1.11.58-1.51c.38-.41.92-.61 1.62-.61z" fill="#797989"/><path d="M180.11 106.83c-10.4 0-18.86-8.46-18.86-18.86 0-3.83 1.16-7.53 3.36-10.7.94-1.36.94-3.16 0-4.51-2.2-3.17-3.36-6.87-3.36-10.7 0-10.4 8.46-18.86 18.86-18.86h20.53c3.3 0 5.98 2.68 5.98 5.98s-2.68 5.98-5.98 5.98l-21.03-.03c-.24 0-.47.02-.71.06-3.3.6-5.79 3.56-5.79 6.88 0 3.77 3.07 6.91 6.85 6.99l20.42-.01c3.29 0 5.98 2.68 5.98 5.98 0 3.3-2.68 5.98-5.98 5.98L180.04 81c-3.87.09-6.94 3.22-6.94 6.99 0 3.32 2.49 6.28 5.79 6.88.23.04.47.06.71.06l44.03-.03c3.29 0 5.97 2.68 5.97 5.98 0 3.3-2.68 5.98-5.98 5.98h-43.51zm-120.99-.17c-3.3 0-5.98-2.68-5.98-5.98l.03-38.95c0-.24-.02-.48-.06-.71-.6-3.3-3.56-5.79-6.88-5.79-3.77 0-6.91 3.07-6.99 6.85l.01 38.6c0 3.29-2.68 5.98-5.98 5.98-3.3 0-5.98-2.68-5.98-5.98l.01-38.51c-.09-3.87-3.22-6.94-6.99-6.94-3.32 0-6.28 2.49-6.88 5.79-.04.23-.06.47-.06.71l.03 38.95c0 3.29-2.68 5.97-5.98 5.97-3.3 0-5.98-2.68-5.98-5.98V62.23c0-10.4 8.46-18.86 18.86-18.86 3.83 0 7.53 1.16 10.7 3.36.68.47 1.47.71 2.26.71s1.58-.24 2.26-.71c3.17-2.2 6.87-3.36 10.7-3.36 10.4 0 18.86 8.46 18.86 18.86v38.45c.02 3.3-2.66 5.98-5.96 5.98zm21.89 0c-3.3 0-5.98-2.68-5.98-5.98V51.35c0-3.3 2.68-5.98 5.98-5.98 3.3 0 5.98 2.68 5.98 5.98v49.34c-.01 3.29-2.69 5.97-5.98 5.97zm55.26-2.43c-16.38 5.96-34.55-2.51-40.51-18.89s2.51-34.55 18.89-40.51c11.18-4.07 23.56-1.57 32.3 6.53 2.4 2.22 2.54 5.99.32 8.38-.65.7-1.43 1.22-2.32 1.54-2.1.77-4.43.3-6.07-1.22-5.46-5.06-13.2-6.63-20.18-4.09-10.23 3.72-15.52 15.07-11.8 25.3s15.07 15.52 25.3 11.8c6.98-2.54 11.9-8.71 12.83-16.1a5.926 5.926 0 016.62-5.15c1.57.2 2.97 1 3.95 2.25.97 1.25 1.4 2.81 1.2 4.38-1.48 11.84-9.35 21.71-20.53 25.78z" fill="#0f66e1"/><linearGradient id="a" gradientUnits="userSpaceOnUse" x1="213.38" y1="90.004" x2="388.163" y2="40.96"><stop offset=".003" stop-color="#0f66e1"/><stop offset=".938" stop-color="#ed69e1"/></linearGradient><path d="M394.17 81.96c-2.91-32.06-23.04-59.15-51.07-71.93-11.09-5.06-23.41-7.87-36.39-7.87-34.64 0-64.59 20.06-78.89 49.19 4.84-5.76 12.08-9.43 20.18-9.43 14.53 0 26.34 11.82 26.34 26.34 0 6.34-2.25 12.17-6 16.72 1.98 1.55 3.8 3.29 5.43 5.21.19-.4.41-.8.67-1.18l30.33-44.03c2.72-3.96 8.14-4.95 12.1-2.23 3.96 2.73 4.95 8.14 2.23 12.1l-14.84 21.54-.6.87c1.64.08 3.24.28 4.82.57 8.5 1.57 15.98 6.06 21.35 12.4 6.74-7.96 16.79-13.02 28.01-13.02 5.34 0 10.41 1.15 14.99 3.21-.37.98-.59 2.04-.59 3.15 0 1.72.49 3.32 1.34 4.68.51.81 1.15 1.54 1.88 2.15.66.54 1.39.99 2.18 1.33 1.06.45 2.22.7 3.44.7 1.22 0 2.39-.25 3.44-.7.62-.26 1.2-.6 1.74-1 3.27 4 5.71 8.7 7.07 13.84a88.63 88.63 0 001.21-14.58c0-2.7-.13-5.38-.37-8.03zm-10.25 6.17c-.83.52-1.8.82-2.84.82a5.377 5.377 0 01-5.14-6.94c.67-2.2 2.72-3.81 5.14-3.81 2.96 0 5.37 2.41 5.37 5.37 0 1.93-1.02 3.61-2.53 4.56z" fill="url(#a)"/><linearGradient id="b" gradientUnits="userSpaceOnUse" x1="237.05" y1="174.362" x2="411.833" y2="125.318"><stop offset=".003" stop-color="#0f66e1"/><stop offset=".938" stop-color="#ed69e1"/></linearGradient><path d="M329.82 137.62c-6.74 7.96-16.79 13.02-28.01 13.02-11.22 0-21.27-5.06-28.01-13.02-6.74 7.96-16.79 13.02-28.01 13.02-.92 0-1.82-.05-2.72-.11 16 16.82 38.6 27.31 63.65 27.31 26.68 0 50.57-11.89 66.68-30.67-4.73 2.22-10 3.47-15.56 3.47-11.23 0-21.28-5.07-28.02-13.02z" fill="url(#b)"/><linearGradient id="c" gradientUnits="userSpaceOnUse" x1="217.51" y1="104.724" x2="392.293" y2="55.681"><stop offset=".003" stop-color="#0f66e1"/><stop offset=".938" stop-color="#ed69e1"/></linearGradient><path d="M245.78 133.24c10.65 0 19.31-8.66 19.31-19.32 0-3.32-.84-6.45-2.32-9.18-3.27-6.03-9.66-10.14-16.99-10.14a8.686 8.686 0 01-8.69-8.7 8.7 8.7 0 018.7-8.7c.49 0 .98.02 1.47.04.24-.02.49-.04.74-.04 4.93 0 8.95-4.01 8.95-8.95 0-4.93-4.01-8.95-8.95-8.95-4.93 0-8.95 4.01-8.95 8.95a8.7 8.7 0 01-8.7 8.7 8.7 8.7 0 01-8.7-8.7c0-.09.01-.19.01-.28a87.13 87.13 0 00-2.49 14.9c-.19 2.35-.29 4.72-.29 7.11 0 5.32.47 10.53 1.38 15.59 3.59 1.07 6.21 4.39 6.21 8.33 0 10.08 7.76 18.37 17.62 19.23.55.08 1.12.11 1.69.11z" fill="url(#c)"/><linearGradient id="d" gradientUnits="userSpaceOnUse" x1="226.057" y1="135.182" x2="400.839" y2="86.139"><stop offset=".003" stop-color="#0f66e1"/><stop offset=".938" stop-color="#ed69e1"/></linearGradient><path d="M321.12 113.93c0-10.65-8.66-19.31-19.31-19.31-10.65 0-19.31 8.66-19.31 19.31 0 10.65 8.66 19.32 19.31 19.32 10.64-.01 19.31-8.67 19.31-19.32z" fill="url(#d)"/><linearGradient id="e" gradientUnits="userSpaceOnUse" x1="230.146" y1="149.756" x2="404.929" y2="100.712"><stop offset=".003" stop-color="#0f66e1"/><stop offset=".938" stop-color="#ed69e1"/></linearGradient><path d="M357.83 94.61c-10.65 0-19.31 8.66-19.31 19.31 0 10.65 8.66 19.32 19.31 19.32 10.65 0 19.31-8.66 19.31-19.32.01-10.64-8.66-19.31-19.31-19.31z" fill="url(#e)"/><radialGradient id="f" cx="259.856" cy="10.271" r="83.251" gradientUnits="userSpaceOnUse"><stop offset="0" stop-color="#23d8a0"/><stop offset="1" stop-color="#23d8a0" stop-opacity="0"/></radialGradient><path d="M247.99 41.92c14.53 0 26.34 11.82 26.34 26.34 0 6.34-2.25 12.17-6 16.72 1.98 1.55 3.8 3.29 5.43 5.21.19-.4.41-.8.67-1.18l30.33-44.03c2.72-3.96 8.14-4.95 12.1-2.23 3.96 2.73 4.95 8.14 2.23 12.1l-14.84 21.54c3.34-1.28 6.77-2.4 10.26-3.35 17.51-15.26 28.6-37.71 28.6-62.77 0-.08-.01-.15-.01-.23-11.09-5.06-23.41-7.87-36.39-7.87-34.64 0-64.59 20.06-78.89 49.19 4.83-5.77 12.08-9.44 20.17-9.44z" fill="url(#f)"/><radialGradient id="g" cx="259.894" cy="10.271" r="83.251" gradientUnits="userSpaceOnUse"><stop offset="0" stop-color="#23d8a0"/><stop offset="1" stop-color="#23d8a0" stop-opacity="0"/></radialGradient><path d="M237.12 85.91a8.7 8.7 0 018.7-8.7c.49 0 .98.02 1.47.04.24-.02.49-.04.74-.04 4.93 0 8.95-4.01 8.95-8.95 0-4.93-4.01-8.95-8.95-8.95-4.93 0-8.95 4.01-8.95 8.95a8.7 8.7 0 01-8.7 8.7 8.7 8.7 0 01-8.7-8.7c0-.09.01-.19.01-.28a87.13 87.13 0 00-2.49 14.9 82.761 82.761 0 0019.4 7.87 8.522 8.522 0 01-1.48-4.84z" fill="url(#g)"/><radialGradient id="h" cx="343.106" cy="177.836" r="108.609" gradientUnits="userSpaceOnUse"><stop offset="0" stop-color="#e82d59"/><stop offset="1" stop-color="#e82d59" stop-opacity="0"/></radialGradient><path d="M314.51 73.04a84.744 84.744 0 01-6.04 4.8c8.5 1.57 15.98 6.06 21.35 12.4 6.74-7.96 16.79-13.02 28.01-13.02 5.34 0 10.41 1.15 14.99 3.21-.37.98-.59 2.04-.59 3.15 0 1.72.49 3.32 1.34 4.68.51.81 1.15 1.54 1.88 2.15.66.54 1.39.99 2.18 1.33 1.06.45 2.22.7 3.44.7 1.22 0 2.39-.25 3.44-.7.62-.26 1.2-.6 1.74-1 3.27 4 5.71 8.7 7.07 13.84A88.63 88.63 0 00394.53 90c0-2.71-.13-5.39-.37-8.04-15.22-8.13-32.6-12.74-51.07-12.74-9.88.01-19.47 1.34-28.58 3.82zm61.43 8.97c.67-2.2 2.72-3.81 5.14-3.81 2.96 0 5.37 2.41 5.37 5.37 0 1.92-1.01 3.6-2.53 4.55-.83.52-1.8.82-2.84.82a5.377 5.377 0 01-5.14-6.93z" fill="url(#h)"/><radialGradient id="i" cx="343.106" cy="177.836" r="108.609" gradientUnits="userSpaceOnUse"><stop offset="0" stop-color="#e82d59"/><stop offset="1" stop-color="#e82d59" stop-opacity="0"/></radialGradient><path d="M329.82 137.62c-6.74 7.96-16.79 13.02-28.01 13.02-11.22 0-21.27-5.06-28.01-13.02-6.74 7.96-16.79 13.02-28.01 13.02-.92 0-1.82-.05-2.72-.11 16 16.82 38.6 27.31 63.65 27.31 26.68 0 50.57-11.89 66.68-30.67-4.73 2.22-10 3.47-15.56 3.47-11.23 0-21.28-5.07-28.02-13.02z" fill="url(#i)"/><radialGradient id="j" cx="343.106" cy="177.836" r="108.609" gradientUnits="userSpaceOnUse"><stop offset="0" stop-color="#e82d59"/><stop offset="1" stop-color="#e82d59" stop-opacity="0"/></radialGradient><path d="M265.09 113.93c0-3.32-.84-6.45-2.32-9.18a108.485 108.485 0 00-18.68 28.41c.56.05 1.12.09 1.69.09 10.65-.01 19.31-8.67 19.31-19.32z" fill="url(#j)"/><radialGradient id="k" cx="343.106" cy="177.836" r="108.609" gradientUnits="userSpaceOnUse"><stop offset="0" stop-color="#e82d59"/><stop offset="1" stop-color="#e82d59" stop-opacity="0"/></radialGradient><path d="M301.8 94.61c-10.65 0-19.31 8.66-19.31 19.31 0 10.65 8.66 19.32 19.31 19.32 10.65 0 19.31-8.66 19.31-19.32.01-10.64-8.66-19.31-19.31-19.31z" fill="url(#k)"/><radialGradient id="l" cx="343.106" cy="177.836" r="108.609" gradientUnits="userSpaceOnUse"><stop offset="0" stop-color="#e82d59"/><stop offset="1" stop-color="#e82d59" stop-opacity="0"/></radialGradient><path d="M357.83 94.61c-10.65 0-19.31 8.66-19.31 19.31 0 10.65 8.66 19.32 19.31 19.32 10.65 0 19.31-8.66 19.31-19.32.01-10.64-8.66-19.31-19.31-19.31z" fill="url(#l)"/><radialGradient id="m" cx="343.21" cy="177.836" r="108.609" gradientUnits="userSpaceOnUse"><stop offset="0" stop-color="#e82d59"/><stop offset="1" stop-color="#e82d59" stop-opacity="0"/></radialGradient><path d="M308.57 77.84c2.09-1.51 4.11-3.11 6.04-4.8-3.49.95-6.92 2.07-10.26 3.35l-.6.87c1.64.08 3.25.29 4.82.58z" fill="url(#m)"/></svg>