<?xml version="1.0" encoding="utf-8"?>
<!-- Generator: Adobe Illustrator 27.7.0, SVG Export Plug-In . SVG Version: 6.00 Build 0)  -->
<svg version="1.1" id="Layer_1" xmlns="http://www.w3.org/2000/svg" xmlns:xlink="http://www.w3.org/1999/xlink" x="0px" y="0px"
	 viewBox="0 0 1065.42 176" style="enable-background:new 0 0 1065.42 176;" xml:space="preserve">
<style type="text/css">
	.st0{fill:url(#SVGID_1_);}
	.st1{clip-path:url(#SVGID_00000065757541408931453750000014371350183801105033_);}
	.st2{fill:url(#SVGID_00000078765695999257334380000003565996092467477921_);}
	.st3{fill:url(#SVGID_00000074415262606603278460000000885665283277175685_);}
	.st4{fill:#231F20;}
</style>
<g>
	<linearGradient id="SVGID_1_" gradientUnits="userSpaceOnUse" x1="8.4646" y1="113.5062" x2="200.0108" y2="52.0793">
		<stop  offset="2.829839e-03" style="stop-color:#0F66E1"/>
		<stop  offset="0.9377" style="stop-color:#ED69E1"/>
	</linearGradient>
	<circle class="st0" cx="88" cy="88" r="87.84"/>
	<g>
		<defs>
			<circle id="SVGID_00000074404890446909658250000012050339565970861443_" cx="88" cy="88" r="87.84"/>
		</defs>
		<clipPath id="SVGID_00000013185052639713569050000000877440497533814702_">
			<use xlink:href="#SVGID_00000074404890446909658250000012050339565970861443_"  style="overflow:visible;"/>
		</clipPath>
	</g>
	<g>
		<defs>
			<circle id="SVGID_00000152970622319579698410000008076109646580701830_" cx="88" cy="88" r="87.84"/>
		</defs>
		<clipPath id="SVGID_00000059293071240685385770000007308784292594554018_">
			<use xlink:href="#SVGID_00000152970622319579698410000008076109646580701830_"  style="overflow:visible;"/>
		</clipPath>
		<g style="clip-path:url(#SVGID_00000059293071240685385770000007308784292594554018_);">
			
				<radialGradient id="SVGID_00000112607944362387609820000007639000803618345912_" cx="41.1494" cy="8.271" r="83.251" gradientUnits="userSpaceOnUse">
				<stop  offset="0" style="stop-color:#23D8A0"/>
				<stop  offset="1" style="stop-color:#23D8A0;stop-opacity:0"/>
			</radialGradient>
			<circle style="fill:url(#SVGID_00000112607944362387609820000007639000803618345912_);" cx="41.15" cy="8.27" r="83.25"/>
			
				<radialGradient id="SVGID_00000052078095793502991150000016604012513951739301_" cx="124.4004" cy="175.836" r="108.6093" gradientUnits="userSpaceOnUse">
				<stop  offset="0" style="stop-color:#E82D59"/>
				<stop  offset="1" style="stop-color:#E82D59;stop-opacity:0"/>
			</radialGradient>
			<circle style="fill:url(#SVGID_00000052078095793502991150000016604012513951739301_);" cx="124.4" cy="175.84" r="108.61"/>
		</g>
	</g>
</g>
<g>
	<path class="st4" d="M227.6,44.16l25.84,68.66l25.78-68.66h20.12v89.58h-15.5v-29.53l1.54-39.5l-26.46,69.03h-11.14l-26.39-68.97
		l1.54,39.44v29.53h-15.5V44.16H227.6z"/>
	<path class="st4" d="M337.31,133.74h-15.5V44.16h15.5V133.74z"/>
	<path class="st4" d="M427.94,104.58c-0.9,9.56-4.43,17.01-10.58,22.36c-6.15,5.35-14.33,8.03-24.55,8.03
		c-7.14,0-13.42-1.69-18.86-5.08c-5.43-3.38-9.63-8.19-12.58-14.43c-2.95-6.23-4.49-13.47-4.61-21.72v-8.37
		c0-8.45,1.5-15.89,4.49-22.33c2.99-6.44,7.29-11.4,12.89-14.89c5.6-3.49,12.07-5.23,19.41-5.23c9.88,0,17.84,2.68,23.87,8.03
		s9.54,12.93,10.52,22.73h-15.5c-0.74-6.44-2.61-11.08-5.63-13.94c-3.01-2.85-7.43-4.28-13.26-4.28c-6.77,0-11.97,2.47-15.6,7.42
		c-3.63,4.95-5.49,12.2-5.57,21.77v7.94c0,9.69,1.73,17.08,5.2,22.17c3.46,5.09,8.54,7.64,15.23,7.64c6.11,0,10.71-1.37,13.78-4.12
		c3.08-2.75,5.02-7.32,5.84-13.72H427.94z"/>
	<path class="st4" d="M497.35,93.75h-36.79v27.56h43v12.43H445V44.16h58.14v12.55h-42.57v24.73h36.79V93.75z"/>
	<path class="st4" d="M569.48,100.52v33.22h-15.57V44.16h34.27c10.01,0,17.95,2.61,23.84,7.82c5.88,5.21,8.83,12.11,8.83,20.69
		c0,8.79-2.88,15.62-8.64,20.51c-5.76,4.89-13.83,7.33-24.21,7.33H569.48z M569.48,87.97h18.7c5.54,0,9.76-1.3,12.67-3.91
		c2.91-2.6,4.37-6.37,4.37-11.29c0-4.84-1.48-8.71-4.43-11.6s-7.01-4.38-12.18-4.46h-19.13V87.97z"/>
	<path class="st4" d="M652.06,133.74h-14.95v-94.5h14.95V133.74z"/>
	<path class="st4" d="M711.26,133.74c-0.66-1.27-1.23-3.34-1.72-6.21c-4.76,4.96-10.58,7.44-17.47,7.44
		c-6.69,0-12.14-1.91-16.37-5.72c-4.22-3.81-6.34-8.53-6.34-14.15c0-7.1,2.63-12.54,7.91-16.33c5.27-3.79,12.81-5.69,22.61-5.69
		h9.17V88.7c0-3.45-0.96-6.2-2.89-8.28c-1.93-2.07-4.86-3.11-8.8-3.11c-3.41,0-6.19,0.85-8.37,2.55c-2.17,1.7-3.26,3.87-3.26,6.49
		h-14.95c0-3.65,1.21-7.06,3.63-10.24c2.42-3.18,5.71-5.67,9.88-7.47c4.16-1.8,8.81-2.71,13.93-2.71c7.79,0,14.01,1.96,18.64,5.88
		c4.63,3.92,7.01,9.42,7.14,16.52v30.02c0,5.99,0.84,10.77,2.52,14.33v1.05H711.26z M694.83,122.97c2.95,0,5.73-0.72,8.34-2.15
		c2.6-1.44,4.56-3.36,5.88-5.78v-12.55h-8.06c-5.54,0-9.7,0.96-12.49,2.89c-2.79,1.93-4.18,4.66-4.18,8.18
		c0,2.87,0.95,5.16,2.86,6.86C689.08,122.12,691.63,122.97,694.83,122.97z"/>
	<path class="st4" d="M761.54,50.99v16.18h11.75v11.07h-11.75v37.16c0,2.54,0.5,4.38,1.51,5.51c1,1.13,2.8,1.69,5.38,1.69
		c1.72,0,3.47-0.21,5.23-0.62v11.57c-3.41,0.94-6.69,1.42-9.84,1.42c-11.48,0-17.23-6.34-17.23-19.01V78.25h-10.95V67.17h10.95
		V50.99H761.54z"/>
	<path class="st4" d="M793.11,133.74V78.25h-10.15V67.17h10.15v-6.09c0-7.38,2.05-13.08,6.15-17.1c4.1-4.02,9.84-6.03,17.23-6.03
		c2.62,0,5.41,0.37,8.37,1.11l-0.37,11.69c-1.64-0.33-3.55-0.49-5.72-0.49c-7.14,0-10.71,3.67-10.71,11.01v5.91h13.54v11.07h-13.54
		v55.49H793.11z"/>
	<path class="st4" d="M832.87,99.84c0-6.52,1.29-12.4,3.88-17.63c2.58-5.23,6.21-9.25,10.89-12.06c4.68-2.81,10.05-4.21,16.12-4.21
		c8.98,0,16.27,2.89,21.87,8.67c5.6,5.78,8.62,13.45,9.07,23.01l0.06,3.51c0,6.56-1.26,12.43-3.78,17.6
		c-2.52,5.17-6.13,9.17-10.83,12s-10.12,4.25-16.27,4.25c-9.39,0-16.91-3.13-22.55-9.38c-5.64-6.25-8.46-14.59-8.46-25.01V99.84z
		 M847.82,101.13c0,6.85,1.42,12.21,4.25,16.09c2.83,3.88,6.77,5.81,11.81,5.81s8.97-1.97,11.78-5.91c2.81-3.94,4.21-9.7,4.21-17.29
		c0-6.73-1.45-12.06-4.34-16c-2.89-3.94-6.82-5.91-11.78-5.91c-4.88,0-8.76,1.94-11.63,5.81
		C849.25,87.63,847.82,93.42,847.82,101.13z"/>
	<path class="st4" d="M945.4,80.83c-1.97-0.33-4-0.49-6.09-0.49c-6.85,0-11.46,2.62-13.84,7.88v45.53h-14.95V67.17h14.27l0.37,7.44
		c3.61-5.78,8.61-8.67,15.01-8.67c2.13,0,3.9,0.29,5.29,0.86L945.4,80.83z"/>
	<path class="st4" d="M972.06,67.17l0.43,6.95c4.68-5.45,11.07-8.18,19.2-8.18c8.9,0,14.99,3.4,18.27,10.21
		c4.84-6.81,11.65-10.21,20.43-10.21c7.34,0,12.81,2.03,16.4,6.09s5.42,10.05,5.51,17.97v43.74h-14.95V90.43
		c0-4.22-0.92-7.32-2.77-9.29s-4.9-2.95-9.17-2.95c-3.41,0-6.18,0.91-8.34,2.74c-2.15,1.83-3.66,4.21-4.52,7.17l0.06,45.65h-14.95
		v-43.8c-0.21-7.83-4.21-11.75-12-11.75c-5.99,0-10.23,2.44-12.74,7.32v48.23h-14.95V67.17H972.06z"/>
</g>
</svg>
