<?xml version="1.0" encoding="utf-8"?>
<!-- Generator: Adobe Illustrator 27.7.0, SVG Export Plug-In . SVG Version: 6.00 Build 0)  -->
<svg version="1.1" id="Layer_1" xmlns="http://www.w3.org/2000/svg" xmlns:xlink="http://www.w3.org/1999/xlink" x="0px" y="0px"
	 viewBox="0 0 396 180" style="enable-background:new 0 0 396 180;" xml:space="preserve">
<style type="text/css">
	.st0{fill:#797989;}
	.st1{fill:#0F66E1;}
	.st2{fill:url(#SVGID_1_);}
	.st3{fill:url(#SVGID_00000013887502704250246640000006683024208116192170_);}
	.st4{fill:url(#SVGID_00000090261957580466771450000014342989652487760797_);}
	.st5{fill:url(#SVGID_00000136387696343421524520000018053660378564284326_);}
	.st6{fill:url(#SVGID_00000075136616626051222760000004116529810952366465_);}
	.st7{fill:url(#SVGID_00000132800634218126078150000005752509178283667890_);}
	.st8{fill:url(#SVGID_00000152245693386630311050000003309807445391761805_);}
	.st9{fill:url(#SVGID_00000008827287163749690620000003754874616171517601_);}
	.st10{fill:url(#SVGID_00000080186146994954705220000012749186770602052235_);}
	.st11{fill:url(#SVGID_00000107556357921474827010000009253196427516549311_);}
	.st12{fill:url(#SVGID_00000139277453904540182320000009850133409198147208_);}
	.st13{fill:url(#SVGID_00000164482798328504747070000006775548590133382571_);}
	.st14{fill:url(#SVGID_00000097475078693069746990000013100637388150119825_);}
</style>
<g>
	<g>
		<path class="st0" d="M7.94,151.63H4v-22.75h3.94V151.63z"/>
		<path class="st0" d="M16.12,134.73l0.11,1.95c1.25-1.51,2.89-2.27,4.92-2.27c3.52,0,5.31,2.02,5.38,6.05v11.17h-3.8v-10.95
			c0-1.07-0.23-1.87-0.7-2.38c-0.46-0.52-1.22-0.77-2.27-0.77c-1.53,0-2.67,0.69-3.42,2.08v12.03h-3.8v-16.91H16.12z"/>
		<path class="st0" d="M29.84,143.05c0-2.6,0.6-4.7,1.81-6.27c1.21-1.58,2.83-2.37,4.86-2.37c1.79,0,3.24,0.62,4.34,1.88v-8.66h3.8
			v24h-3.44l-0.19-1.75c-1.14,1.38-2.65,2.06-4.55,2.06c-1.98,0-3.58-0.8-4.8-2.39C30.45,147.96,29.84,145.79,29.84,143.05z
			 M33.64,143.38c0,1.72,0.33,3.06,0.99,4.02c0.66,0.96,1.6,1.45,2.82,1.45c1.55,0,2.69-0.69,3.41-2.08v-7.22
			c-0.7-1.35-1.82-2.03-3.38-2.03c-1.23,0-2.18,0.49-2.84,1.46C33.97,139.96,33.64,141.42,33.64,143.38z"/>
		<path class="st0" d="M59.02,149.98c-1.12,1.31-2.7,1.97-4.75,1.97c-1.83,0-3.22-0.54-4.16-1.61c-0.94-1.07-1.41-2.62-1.41-4.66
			v-10.95h3.8v10.91c0,2.15,0.89,3.22,2.67,3.22c1.84,0,3.09-0.66,3.73-1.98v-12.14h3.8v16.91h-3.58L59.02,149.98z"/>
		<path class="st0" d="M76.19,147.04c0-0.68-0.28-1.19-0.84-1.55c-0.56-0.35-1.48-0.67-2.77-0.94c-1.29-0.27-2.37-0.61-3.23-1.03
			c-1.9-0.92-2.84-2.24-2.84-3.98c0-1.46,0.61-2.68,1.84-3.66c1.23-0.98,2.79-1.47,4.69-1.47c2.02,0,3.65,0.5,4.9,1.5
			c1.24,1,1.87,2.3,1.87,3.89H76c0-0.73-0.27-1.34-0.81-1.82c-0.54-0.48-1.26-0.73-2.16-0.73c-0.83,0-1.51,0.19-2.04,0.58
			c-0.53,0.39-0.79,0.9-0.79,1.55c0,0.58,0.24,1.04,0.73,1.36c0.49,0.32,1.48,0.65,2.97,0.98c1.49,0.33,2.66,0.72,3.51,1.17
			c0.85,0.45,1.48,1,1.89,1.63c0.41,0.64,0.62,1.41,0.62,2.31c0,1.52-0.63,2.75-1.89,3.7c-1.26,0.94-2.91,1.41-4.95,1.41
			c-1.39,0-2.62-0.25-3.7-0.75c-1.08-0.5-1.93-1.19-2.53-2.06c-0.6-0.88-0.91-1.82-0.91-2.83h3.69c0.05,0.9,0.39,1.59,1.02,2.07
			s1.45,0.73,2.48,0.73c1,0,1.76-0.19,2.28-0.57C75.93,148.15,76.19,147.65,76.19,147.04z"/>
		<path class="st0" d="M88.15,130.62v4.11h2.98v2.81h-2.98v9.44c0,0.65,0.13,1.11,0.38,1.4c0.25,0.29,0.71,0.43,1.37,0.43
			c0.44,0,0.88-0.05,1.33-0.16v2.94c-0.87,0.24-1.7,0.36-2.5,0.36c-2.92,0-4.38-1.61-4.38-4.83v-9.58h-2.78v-2.81h2.78v-4.11H88.15z
			"/>
		<path class="st0" d="M103.04,138.2c-0.5-0.08-1.02-0.12-1.55-0.12c-1.74,0-2.91,0.67-3.52,2v11.56h-3.8v-16.91h3.62l0.09,1.89
			c0.92-1.47,2.19-2.2,3.81-2.2c0.54,0,0.99,0.07,1.34,0.22L103.04,138.2z"/>
		<path class="st0" d="M111.8,146.2l3.44-11.47h4.05l-6.72,19.47c-1.03,2.84-2.78,4.27-5.25,4.27c-0.55,0-1.16-0.09-1.83-0.28v-2.95
			l0.72,0.05c0.96,0,1.68-0.17,2.16-0.52c0.48-0.35,0.87-0.93,1.15-1.76l0.55-1.45l-5.94-16.82h4.09L111.8,146.2z"/>
		<path class="st0" d="M134.29,151.63h-3.94v-22.75h3.94V151.63z"/>
		<path class="st0" d="M142.46,134.73l0.11,1.95c1.25-1.51,2.89-2.27,4.92-2.27c3.52,0,5.31,2.02,5.38,6.05v11.17h-3.8v-10.95
			c0-1.07-0.23-1.87-0.7-2.38c-0.46-0.52-1.22-0.77-2.27-0.77c-1.53,0-2.67,0.69-3.42,2.08v12.03h-3.8v-16.91H142.46z"/>
		<path class="st0" d="M158.23,151.63v-14.09h-2.58v-2.81h2.58v-1.55c0-1.88,0.52-3.32,1.56-4.34c1.04-1.02,2.5-1.53,4.38-1.53
			c0.67,0,1.38,0.09,2.12,0.28l-0.09,2.97c-0.42-0.08-0.9-0.12-1.45-0.12c-1.81,0-2.72,0.93-2.72,2.8v1.5h3.44v2.81h-3.44v14.09
			H158.23z"/>
		<path class="st0" d="M167.69,143.02c0-1.66,0.33-3.15,0.98-4.48s1.58-2.35,2.77-3.06c1.19-0.71,2.55-1.07,4.09-1.07
			c2.28,0,4.13,0.73,5.55,2.2s2.19,3.42,2.3,5.84l0.02,0.89c0,1.67-0.32,3.16-0.96,4.47s-1.56,2.33-2.75,3.05
			c-1.19,0.72-2.57,1.08-4.13,1.08c-2.39,0-4.29-0.79-5.73-2.38c-1.43-1.59-2.15-3.71-2.15-6.35V143.02z M171.49,143.35
			c0,1.74,0.36,3.1,1.08,4.09s1.72,1.48,3,1.48s2.28-0.5,2.99-1.5c0.71-1,1.07-2.46,1.07-4.39c0-1.71-0.37-3.06-1.1-4.06
			s-1.73-1.5-2.99-1.5c-1.24,0-2.22,0.49-2.95,1.48C171.85,139.92,171.49,141.39,171.49,143.35z"/>
		<path class="st0" d="M189.15,147.63c0.71,0,1.25,0.2,1.64,0.6c0.38,0.4,0.58,0.9,0.58,1.51c0,0.59-0.19,1.09-0.58,1.48
			c-0.39,0.39-0.93,0.59-1.64,0.59c-0.68,0-1.21-0.19-1.61-0.58c-0.4-0.38-0.59-0.88-0.59-1.48c0-0.6,0.19-1.11,0.58-1.51
			C187.91,147.83,188.45,147.63,189.15,147.63z"/>
	</g>
	<path class="st1" d="M180.11,106.83c-10.4,0-18.86-8.46-18.86-18.86c0-3.83,1.16-7.53,3.36-10.7c0.94-1.36,0.94-3.16,0-4.51
		c-2.2-3.17-3.36-6.87-3.36-10.7c0-10.4,8.46-18.86,18.86-18.86h20.53c3.3,0,5.98,2.68,5.98,5.98s-2.68,5.98-5.98,5.98
		c0,0-21.03-0.03-21.03-0.03c-0.24,0-0.47,0.02-0.71,0.06c-3.3,0.6-5.79,3.56-5.79,6.88c0,3.77,3.07,6.91,6.85,6.99l20.42-0.01
		c3.29,0,5.98,2.68,5.98,5.98c0,3.3-2.68,5.98-5.98,5.98l-20.34-0.01c-3.87,0.09-6.94,3.22-6.94,6.99c0,3.32,2.49,6.28,5.79,6.88
		c0.23,0.04,0.47,0.06,0.71,0.06c0,0,44.03-0.03,44.03-0.03c3.29,0,5.97,2.68,5.97,5.98c0,3.3-2.68,5.98-5.98,5.98H180.11z"/>
	<path class="st1" d="M59.12,106.66c-3.3,0-5.98-2.68-5.98-5.98l0.03-38.95c0-0.24-0.02-0.48-0.06-0.71
		c-0.6-3.3-3.56-5.79-6.88-5.79c-3.77,0-6.91,3.07-6.99,6.85l0.01,38.6c0,3.29-2.68,5.98-5.98,5.98c-3.3,0-5.98-2.68-5.98-5.98
		l0.01-38.51c-0.09-3.87-3.22-6.94-6.99-6.94c-3.32,0-6.28,2.49-6.88,5.79c-0.04,0.23-0.06,0.47-0.06,0.71l0.03,38.95
		c0,3.29-2.68,5.97-5.98,5.97c-3.3,0-5.98-2.68-5.98-5.98V62.23c0-10.4,8.46-18.86,18.86-18.86c3.83,0,7.53,1.16,10.7,3.36
		c0.68,0.47,1.47,0.71,2.26,0.71s1.58-0.24,2.26-0.71c3.17-2.2,6.87-3.36,10.7-3.36c10.4,0,18.86,8.46,18.86,18.86v38.45
		C65.1,103.98,62.42,106.66,59.12,106.66z"/>
	<path class="st1" d="M81.01,106.66c-3.3,0-5.98-2.68-5.98-5.98V51.35c0-3.3,2.68-5.98,5.98-5.98c3.3,0,5.98,2.68,5.98,5.98v49.34
		C86.98,103.98,84.3,106.66,81.01,106.66z"/>
	<path class="st1" d="M136.27,104.23c-16.38,5.96-34.55-2.51-40.51-18.89s2.51-34.55,18.89-40.51c11.18-4.07,23.56-1.57,32.3,6.53
		c2.4,2.22,2.54,5.99,0.32,8.38c-0.65,0.7-1.43,1.22-2.32,1.54c-2.1,0.77-4.43,0.3-6.07-1.22c-5.46-5.06-13.2-6.63-20.18-4.09
		c-10.23,3.72-15.52,15.07-11.8,25.3s15.07,15.52,25.3,11.8c6.98-2.54,11.9-8.71,12.83-16.1c0.28-2.22,1.76-4.07,3.86-4.84
		c0.89-0.32,1.82-0.43,2.76-0.31c1.57,0.2,2.97,1,3.95,2.25c0.97,1.25,1.4,2.81,1.2,4.38C155.32,90.29,147.45,100.16,136.27,104.23z
		"/>
	<g>
		<linearGradient id="SVGID_1_" gradientUnits="userSpaceOnUse" x1="213.3799" y1="90.0038" x2="388.1625" y2="40.9603">
			<stop  offset="2.829839e-03" style="stop-color:#0F66E1"/>
			<stop  offset="0.9377" style="stop-color:#ED69E1"/>
		</linearGradient>
		<path class="st2" d="M394.17,81.96c-2.91-32.06-23.04-59.15-51.07-71.93c-11.09-5.06-23.41-7.87-36.39-7.87
			c-34.64,0-64.59,20.06-78.89,49.19c4.84-5.76,12.08-9.43,20.18-9.43c14.53,0,26.34,11.82,26.34,26.34c0,6.34-2.25,12.17-6,16.72
			c1.98,1.55,3.8,3.29,5.43,5.21c0.19-0.4,0.41-0.8,0.67-1.18l30.33-44.03c2.72-3.96,8.14-4.95,12.1-2.23
			c3.96,2.73,4.95,8.14,2.23,12.1l-14.84,21.54l-0.6,0.87c1.64,0.08,3.24,0.28,4.82,0.57c8.5,1.57,15.98,6.06,21.35,12.4
			c6.74-7.96,16.79-13.02,28.01-13.02c5.34,0,10.41,1.15,14.99,3.21l0,0c-0.37,0.98-0.59,2.04-0.59,3.15c0,1.72,0.49,3.32,1.34,4.68
			c0.51,0.81,1.15,1.54,1.88,2.15c0.66,0.54,1.39,0.99,2.18,1.33c1.06,0.45,2.22,0.7,3.44,0.7c1.22,0,2.39-0.25,3.44-0.7
			c0.62-0.26,1.2-0.6,1.74-1h0c3.27,4,5.71,8.7,7.07,13.84c0.79-4.74,1.21-9.61,1.21-14.58C394.54,87.29,394.41,84.61,394.17,81.96z
			 M383.92,88.13c-0.83,0.52-1.8,0.82-2.84,0.82c-2.96,0-5.37-2.41-5.37-5.37c0-0.54,0.08-1.07,0.23-1.57
			c0.67-2.2,2.72-3.81,5.14-3.81c2.96,0,5.37,2.41,5.37,5.37C386.45,85.5,385.43,87.18,383.92,88.13z"/>
		
			<linearGradient id="SVGID_00000150823398767861462290000012726525561514779822_" gradientUnits="userSpaceOnUse" x1="237.0505" y1="174.3616" x2="411.8331" y2="125.3181">
			<stop  offset="2.829839e-03" style="stop-color:#0F66E1"/>
			<stop  offset="0.9377" style="stop-color:#ED69E1"/>
		</linearGradient>
		<path style="fill:url(#SVGID_00000150823398767861462290000012726525561514779822_);" d="M329.82,137.62
			c-6.74,7.96-16.79,13.02-28.01,13.02c-11.22,0-21.27-5.06-28.01-13.02c-6.74,7.96-16.79,13.02-28.01,13.02
			c-0.92,0-1.82-0.05-2.72-0.11c16,16.82,38.6,27.31,63.65,27.31c26.68,0,50.57-11.89,66.68-30.67c-4.73,2.22-10,3.47-15.56,3.47
			C346.61,150.64,336.56,145.57,329.82,137.62z"/>
		
			<linearGradient id="SVGID_00000149377581917561831650000011130335887987130295_" gradientUnits="userSpaceOnUse" x1="217.5104" y1="104.7243" x2="392.2931" y2="55.6808">
			<stop  offset="2.829839e-03" style="stop-color:#0F66E1"/>
			<stop  offset="0.9377" style="stop-color:#ED69E1"/>
		</linearGradient>
		<path style="fill:url(#SVGID_00000149377581917561831650000011130335887987130295_);" d="M245.78,133.24
			c10.65,0,19.31-8.66,19.31-19.32c0-3.32-0.84-6.45-2.32-9.18c-3.27-6.03-9.66-10.14-16.99-10.14c-3.01,0-5.66-1.53-7.22-3.85
			c-0.93-1.38-1.47-3.05-1.47-4.85c0-4.8,3.89-8.7,8.7-8.7c0.49,0,0.98,0.02,1.47,0.04c0.24-0.02,0.49-0.04,0.74-0.04
			c4.93,0,8.95-4.01,8.95-8.95c0-4.93-4.01-8.95-8.95-8.95c-4.93,0-8.95,4.01-8.95,8.95c0,4.8-3.89,8.7-8.7,8.7
			c-4.8,0-8.7-3.89-8.7-8.7c0-0.09,0.01-0.19,0.01-0.28c-1.24,4.82-2.09,9.8-2.49,14.9c-0.19,2.35-0.29,4.72-0.29,7.11
			c0,5.32,0.47,10.53,1.38,15.59c3.59,1.07,6.21,4.39,6.21,8.33c0,10.08,7.76,18.37,17.62,19.23
			C244.64,133.21,245.21,133.24,245.78,133.24z"/>
		
			<linearGradient id="SVGID_00000127751250470688159210000006442077065080128139_" gradientUnits="userSpaceOnUse" x1="226.0569" y1="135.1823" x2="400.8395" y2="86.1388">
			<stop  offset="2.829839e-03" style="stop-color:#0F66E1"/>
			<stop  offset="0.9377" style="stop-color:#ED69E1"/>
		</linearGradient>
		<path style="fill:url(#SVGID_00000127751250470688159210000006442077065080128139_);" d="M321.12,113.93
			c0-10.65-8.66-19.31-19.31-19.31c-10.65,0-19.31,8.66-19.31,19.31c0,10.65,8.66,19.32,19.31,19.32
			C312.45,133.24,321.12,124.58,321.12,113.93z"/>
		
			<linearGradient id="SVGID_00000018937801880796218790000010540452122347254693_" gradientUnits="userSpaceOnUse" x1="230.1461" y1="149.7557" x2="404.9287" y2="100.7122">
			<stop  offset="2.829839e-03" style="stop-color:#0F66E1"/>
			<stop  offset="0.9377" style="stop-color:#ED69E1"/>
		</linearGradient>
		<path style="fill:url(#SVGID_00000018937801880796218790000010540452122347254693_);" d="M357.83,94.61
			c-10.65,0-19.31,8.66-19.31,19.31c0,10.65,8.66,19.32,19.31,19.32c10.65,0,19.31-8.66,19.31-19.32
			C377.15,103.28,368.48,94.61,357.83,94.61z"/>
		
			<radialGradient id="SVGID_00000155109823946918876310000016408247711979149962_" cx="259.8555" cy="10.271" r="83.251" gradientUnits="userSpaceOnUse">
			<stop  offset="0" style="stop-color:#23D8A0"/>
			<stop  offset="1" style="stop-color:#23D8A0;stop-opacity:0"/>
		</radialGradient>
		<path style="fill:url(#SVGID_00000155109823946918876310000016408247711979149962_);" d="M247.99,41.92
			c14.53,0,26.34,11.82,26.34,26.34c0,6.34-2.25,12.17-6,16.72c1.98,1.55,3.8,3.29,5.43,5.21c0.19-0.4,0.41-0.8,0.67-1.18
			l30.33-44.03c2.72-3.96,8.14-4.95,12.1-2.23c3.96,2.73,4.95,8.14,2.23,12.1l-14.84,21.54c3.34-1.28,6.77-2.4,10.26-3.35
			c17.51-15.26,28.6-37.71,28.6-62.77c0-0.08-0.01-0.15-0.01-0.23c-11.09-5.06-23.41-7.87-36.39-7.87
			c-34.64,0-64.59,20.06-78.89,49.19C232.65,45.59,239.9,41.92,247.99,41.92z"/>
		
			<radialGradient id="SVGID_00000111879199749591010620000010264539051582338223_" cx="259.8943" cy="10.271" r="83.251" gradientUnits="userSpaceOnUse">
			<stop  offset="0" style="stop-color:#23D8A0"/>
			<stop  offset="1" style="stop-color:#23D8A0;stop-opacity:0"/>
		</radialGradient>
		<path style="fill:url(#SVGID_00000111879199749591010620000010264539051582338223_);" d="M237.12,85.91c0-4.8,3.89-8.7,8.7-8.7
			c0.49,0,0.98,0.02,1.47,0.04c0.24-0.02,0.49-0.04,0.74-0.04c4.93,0,8.95-4.01,8.95-8.95c0-4.93-4.01-8.95-8.95-8.95
			c-4.93,0-8.95,4.01-8.95,8.95c0,4.8-3.89,8.7-8.7,8.7c-4.8,0-8.7-3.89-8.7-8.7c0-0.09,0.01-0.19,0.01-0.28
			c-1.24,4.82-2.09,9.8-2.49,14.9c6.04,3.39,12.54,6.06,19.4,7.87C237.66,89.38,237.12,87.71,237.12,85.91z"/>
		
			<radialGradient id="SVGID_00000024715490965606626960000016708125072030373285_" cx="343.1065" cy="177.836" r="108.6093" gradientUnits="userSpaceOnUse">
			<stop  offset="0" style="stop-color:#E82D59"/>
			<stop  offset="1" style="stop-color:#E82D59;stop-opacity:0"/>
		</radialGradient>
		<path style="fill:url(#SVGID_00000024715490965606626960000016708125072030373285_);" d="M314.51,73.04
			c-1.94,1.69-3.95,3.29-6.04,4.8c8.5,1.57,15.98,6.06,21.35,12.4c6.74-7.96,16.79-13.02,28.01-13.02c5.34,0,10.41,1.15,14.99,3.21
			l0,0c-0.37,0.98-0.59,2.04-0.59,3.15c0,1.72,0.49,3.32,1.34,4.68c0.51,0.81,1.15,1.54,1.88,2.15c0.66,0.54,1.39,0.99,2.18,1.33
			c1.06,0.45,2.22,0.7,3.44,0.7c1.22,0,2.39-0.25,3.44-0.7c0.62-0.26,1.2-0.6,1.74-1h0c3.27,4,5.71,8.7,7.07,13.84
			c0.79-4.74,1.21-9.61,1.21-14.58c0-2.71-0.13-5.39-0.37-8.04c-15.22-8.13-32.6-12.74-51.07-12.74
			C333.21,69.23,323.62,70.56,314.51,73.04z M375.94,82.01c0.67-2.2,2.72-3.81,5.14-3.81c2.96,0,5.37,2.41,5.37,5.37
			c0,1.92-1.01,3.6-2.53,4.55c-0.83,0.52-1.8,0.82-2.84,0.82c-2.96,0-5.37-2.41-5.37-5.37C375.71,83.04,375.79,82.51,375.94,82.01z"
			/>
		
			<radialGradient id="SVGID_00000038412878801162437330000005677648406741073044_" cx="343.1065" cy="177.836" r="108.6093" gradientUnits="userSpaceOnUse">
			<stop  offset="0" style="stop-color:#E82D59"/>
			<stop  offset="1" style="stop-color:#E82D59;stop-opacity:0"/>
		</radialGradient>
		<path style="fill:url(#SVGID_00000038412878801162437330000005677648406741073044_);" d="M329.82,137.62
			c-6.74,7.96-16.79,13.02-28.01,13.02c-11.22,0-21.27-5.06-28.01-13.02c-6.74,7.96-16.79,13.02-28.01,13.02
			c-0.92,0-1.82-0.05-2.72-0.11c16,16.82,38.6,27.31,63.65,27.31c26.68,0,50.57-11.89,66.68-30.67c-4.73,2.22-10,3.47-15.56,3.47
			C346.61,150.64,336.56,145.57,329.82,137.62z"/>
		
			<radialGradient id="SVGID_00000146465668365984226260000002612518627096889473_" cx="343.1065" cy="177.836" r="108.6093" gradientUnits="userSpaceOnUse">
			<stop  offset="0" style="stop-color:#E82D59"/>
			<stop  offset="1" style="stop-color:#E82D59;stop-opacity:0"/>
		</radialGradient>
		<path style="fill:url(#SVGID_00000146465668365984226260000002612518627096889473_);" d="M265.09,113.93
			c0-3.32-0.84-6.45-2.32-9.18c-7.63,8.38-13.96,17.95-18.68,28.41c0.56,0.05,1.12,0.09,1.69,0.09
			C256.43,133.24,265.09,124.58,265.09,113.93z"/>
		
			<radialGradient id="SVGID_00000047768661417220899530000017516898719150425738_" cx="343.1065" cy="177.836" r="108.6093" gradientUnits="userSpaceOnUse">
			<stop  offset="0" style="stop-color:#E82D59"/>
			<stop  offset="1" style="stop-color:#E82D59;stop-opacity:0"/>
		</radialGradient>
		<path style="fill:url(#SVGID_00000047768661417220899530000017516898719150425738_);" d="M301.8,94.61
			c-10.65,0-19.31,8.66-19.31,19.31c0,10.65,8.66,19.32,19.31,19.32c10.65,0,19.31-8.66,19.31-19.32
			C321.12,103.28,312.45,94.61,301.8,94.61z"/>
		
			<radialGradient id="SVGID_00000069356506373750940300000012230785944132112525_" cx="343.1065" cy="177.836" r="108.6093" gradientUnits="userSpaceOnUse">
			<stop  offset="0" style="stop-color:#E82D59"/>
			<stop  offset="1" style="stop-color:#E82D59;stop-opacity:0"/>
		</radialGradient>
		<path style="fill:url(#SVGID_00000069356506373750940300000012230785944132112525_);" d="M357.83,94.61
			c-10.65,0-19.31,8.66-19.31,19.31c0,10.65,8.66,19.32,19.31,19.32c10.65,0,19.31-8.66,19.31-19.32
			C377.15,103.28,368.48,94.61,357.83,94.61z"/>
		
			<radialGradient id="SVGID_00000108987239848912981260000016572438452054766772_" cx="343.2104" cy="177.836" r="108.6093" gradientUnits="userSpaceOnUse">
			<stop  offset="0" style="stop-color:#E82D59"/>
			<stop  offset="1" style="stop-color:#E82D59;stop-opacity:0"/>
		</radialGradient>
		<path style="fill:url(#SVGID_00000108987239848912981260000016572438452054766772_);" d="M308.57,77.84
			c2.09-1.51,4.11-3.11,6.04-4.8c-3.49,0.95-6.92,2.07-10.26,3.35l-0.6,0.87C305.39,77.34,307,77.55,308.57,77.84z"/>
	</g>
</g>
</svg>
